<svg id="Group_11696" data-name="Group 11696" xmlns="http://www.w3.org/2000/svg" xmlns:xlink="http://www.w3.org/1999/xlink" width="202.618" height="79.221" viewBox="0 0 202.618 79.221">
  <defs>
    <clipPath id="clip-path">
      <rect id="Rectangle_46" data-name="Rectangle 46" width="202.618" height="79.221" fill="none"/>
    </clipPath>
  </defs>
  <g id="Group_11695" data-name="Group 11695" clip-path="url(#clip-path)">
    <path id="Path_1" data-name="Path 1" d="M13.513,67.839c0,4.582-2.742,6.79-6.757,6.79S0,72.422,0,67.839V52.152H3.981v5.519h8.528v3.613H3.981v6.555c0,2.208,1.136,3.078,2.775,3.078s2.777-.837,2.777-3.078V67.4h3.98Z" transform="translate(0 -24.334)" fill="#f68c48"/>
    <path id="Path_2" data-name="Path 2" d="M45.732,70.38a4.868,4.868,0,1,0-4.849,4.985,4.688,4.688,0,0,0,4.849-4.985m3.981,8.262H46.067V75.565H46a6.078,6.078,0,0,1-5.854,3.512c-3.947,0-8.16-2.843-8.16-8.7a8.486,8.486,0,0,1,8.9-8.7c5.218,0,8.83,3.512,8.83,8.83Z" transform="translate(-14.925 -28.782)" fill="#f68c48"/>
    <path id="Path_3" data-name="Path 3" d="M86.848,78.642v-8.6c0-3.144-1.672-4.65-4.181-4.65s-4.18,1.505-4.18,4.65v8.6H74.506v-8.6c0-5.519,3.279-8.362,8.161-8.362s8.161,2.809,8.161,8.362v8.6Z" transform="translate(-34.765 -28.782)" fill="#f68c48"/>
    <path id="Path_4" data-name="Path 4" d="M122.036,65.4a4.716,4.716,0,0,0-4.884,4.984,4.867,4.867,0,0,0,9.733,0,4.689,4.689,0,0,0-4.85-4.984m4.85,10.737h-.066a6.267,6.267,0,0,1-5.519,2.743c-3.947,0-8.161-2.642-8.161-8.5a8.486,8.486,0,0,1,8.9-8.7c5.218,0,8.831,3.478,8.831,8.83v6.823c0,6.322-3.914,8.8-8.764,8.8-4.114,0-7.359-1.772-8.4-5.686h4.014c.669,1.539,2.275,2.241,4.382,2.241,2.944,0,4.782-1.371,4.782-5.218Z" transform="translate(-52.792 -28.782)" fill="#f68c48"/>
    <path id="Path_5" data-name="Path 5" d="M158.687,68.541v.067h9.231v-.067a4.906,4.906,0,0,0-9.231,0m-.1,3.245v.066a4.559,4.559,0,0,0,4.715,3.613,4.642,4.642,0,0,0,3.914-1.572h4.248a8.376,8.376,0,0,1-8.161,5.185,8.7,8.7,0,1,1,8.831-8.7v1.4Z" transform="translate(-72.047 -28.783)" fill="#f68c48"/>
    <path id="Path_6" data-name="Path 6" d="M206.208,69.21v-.167c0-2.676-1.338-3.646-3.279-3.646s-3.278.97-3.278,3.646v9.6h-3.98v-9.6c0-4.984,2.944-7.359,7.257-7.359s7.225,2.375,7.225,7.426v.1Z" transform="translate(-91.302 -28.782)" fill="#f68c48"/>
    <path id="Path_7" data-name="Path 7" d="M262.136,78.642v-8.6c0-3.144-1.672-4.65-4.181-4.65s-4.181,1.505-4.181,4.65v8.6h-3.981v-8.6c0-5.519,3.279-8.362,8.161-8.362s8.161,2.809,8.161,8.362v8.6Z" transform="translate(-116.555 -28.782)" fill="#f68c48"/>
    <path id="Path_8" data-name="Path 8" d="M292.71,68.541v.067h9.23v-.067a4.9,4.9,0,0,0-9.23,0m-.1,3.245v.066a4.559,4.559,0,0,0,4.716,3.613,4.639,4.639,0,0,0,3.912-1.572h4.249a8.377,8.377,0,0,1-8.161,5.185,8.7,8.7,0,1,1,8.83-8.7v1.4Z" transform="translate(-134.582 -28.783)" fill="#f68c48"/>
    <path id="Path_9" data-name="Path 9" d="M245.6,34.873l-.168.24-.049.07a1.393,1.393,0,0,1-2.288-1.59l.179-.258Z" transform="translate(-113.312 -15.554)" fill="#f68c48"/>
    <path id="Path_10" data-name="Path 10" d="M243.093,33.593l-.046.071a1.393,1.393,0,0,0,2.334,1.519l.049-.07.167-.24-2.324-1.539-.179.259" transform="translate(-113.312 -15.554)" fill="#f68c48"/>
    <path id="Path_11" data-name="Path 11" d="M270.943,0a39.915,39.915,0,0,0-9.749,1.22,39.581,39.581,0,0,0-17.132,9.311,40.063,40.063,0,0,0-5.8,6.733l-.538.776.584.38.585.38.584.38.584.38.5-.72A36.7,36.7,0,0,1,253.378,7.253a36.663,36.663,0,0,1,8.5-3.331,37.127,37.127,0,0,1,9.065-1.135h.018A36.83,36.83,0,0,1,307.776,39.6v.018a36.827,36.827,0,0,1-36.814,36.813h-.018A36.829,36.829,0,0,1,234.13,39.618c0-.006,0-.011,0-.018a37.383,37.383,0,0,1,.241-4.225l.11-.871-.691-.1-.69-.1-.691-.1-.69-.1q-.118.936-.118.936a40.278,40.278,0,0,0-.259,4.542c0,.006,0,.012,0,.019a39.616,39.616,0,0,0,39.6,39.6h.019a39.614,39.614,0,0,0,39.6-39.6c0-.006,0-.013,0-.019A39.616,39.616,0,0,0,270.963,0Z" transform="translate(-107.945)" fill="#f68c48"/>
    <path id="Path_12" data-name="Path 12" d="M231.975,63.217l.039-.312a1.394,1.394,0,0,1,2.766.349l0,.034-.037.29Z" transform="translate(-108.241 -28.783)" fill="#fff"/>
    <path id="Path_13" data-name="Path 13" d="M232.015,62.905l-.039.312,2.764.361.037-.291,0-.034a1.393,1.393,0,0,0-1.208-1.557,1.324,1.324,0,0,0-.177-.011,1.394,1.394,0,0,0-1.381,1.219" transform="translate(-108.241 -28.783)" fill="#f68c48"/>
    <path id="Path_14" data-name="Path 14" d="M238.534,47.76a1.471,1.471,0,1,1-1.384-1.553,1.471,1.471,0,0,1,1.384,1.553" transform="translate(-109.93 -21.559)" fill="#f68c48"/>
    <path id="Path_15" data-name="Path 15" d="M236.049,46.349a.309.309,0,0,0-.018.618.242.242,0,0,0,.223-.077.307.307,0,0,0,.1-.213h0a.3.3,0,0,0-.077-.223.3.3,0,0,0-.213-.1h-.018m0,2.942c-.052,0-.1,0-.156,0a2.616,2.616,0,1,1,.156,0" transform="translate(-108.914 -20.543)" fill="#f68c48"/>
  </g>
</svg>
